<svg width="191" height="179" viewBox="0 0 191 179" fill="none" xmlns="http://www.w3.org/2000/svg">
<path d="M35 17.5C35 27.165 27.165 35 17.5 35C7.83502 35 0 27.165 0 17.5C0 7.83502 7.83502 0 17.5 0C27.165 0 35 7.83502 35 17.5Z" fill="white" fill-opacity="0.23"/>
<path d="M35 65.5C35 75.165 27.165 83 17.5 83C7.83502 83 0 75.165 0 65.5C0 55.835 7.83502 48 17.5 48C27.165 48 35 55.835 35 65.5Z" fill="white" fill-opacity="0.23"/>
<path d="M35 113.5C35 123.165 27.165 131 17.5 131C7.83502 131 0 123.165 0 113.5C0 103.835 7.83502 96 17.5 96C27.165 96 35 103.835 35 113.5Z" fill="white" fill-opacity="0.23"/>
<path d="M35 161.5C35 171.165 27.165 179 17.5 179C7.83502 179 0 171.165 0 161.5C0 151.835 7.83502 144 17.5 144C27.165 144 35 151.835 35 161.5Z" fill="white" fill-opacity="0.23"/>
<path d="M87 17.5C87 27.165 79.165 35 69.5 35C59.835 35 52 27.165 52 17.5C52 7.83502 59.835 0 69.5 0C79.165 0 87 7.83502 87 17.5Z" fill="white" fill-opacity="0.23"/>
<path d="M87 65.5C87 75.165 79.165 83 69.5 83C59.835 83 52 75.165 52 65.5C52 55.835 59.835 48 69.5 48C79.165 48 87 55.835 87 65.5Z" fill="white" fill-opacity="0.23"/>
<path d="M87 113.5C87 123.165 79.165 131 69.5 131C59.835 131 52 123.165 52 113.5C52 103.835 59.835 96 69.5 96C79.165 96 87 103.835 87 113.5Z" fill="white" fill-opacity="0.23"/>
<path d="M87 161.5C87 171.165 79.165 179 69.5 179C59.835 179 52 171.165 52 161.5C52 151.835 59.835 144 69.5 144C79.165 144 87 151.835 87 161.5Z" fill="white" fill-opacity="0.23"/>
<path d="M139 17.5C139 27.165 131.165 35 121.5 35C111.835 35 104 27.165 104 17.5C104 7.83502 111.835 0 121.5 0C131.165 0 139 7.83502 139 17.5Z" fill="white" fill-opacity="0.23"/>
<path d="M139 65.5C139 75.165 131.165 83 121.5 83C111.835 83 104 75.165 104 65.5C104 55.835 111.835 48 121.5 48C131.165 48 139 55.835 139 65.5Z" fill="white" fill-opacity="0.23"/>
<path d="M139 113.5C139 123.165 131.165 131 121.5 131C111.835 131 104 123.165 104 113.5C104 103.835 111.835 96 121.5 96C131.165 96 139 103.835 139 113.5Z" fill="white" fill-opacity="0.23"/>
<path d="M139 161.5C139 171.165 131.165 179 121.5 179C111.835 179 104 171.165 104 161.5C104 151.835 111.835 144 121.5 144C131.165 144 139 151.835 139 161.5Z" fill="white" fill-opacity="0.23"/>
<path d="M191 17.5C191 27.165 183.165 35 173.5 35C163.835 35 156 27.165 156 17.5C156 7.83502 163.835 0 173.5 0C183.165 0 191 7.83502 191 17.5Z" fill="white" fill-opacity="0.23"/>
<path d="M191 65.5C191 75.165 183.165 83 173.5 83C163.835 83 156 75.165 156 65.5C156 55.835 163.835 48 173.5 48C183.165 48 191 55.835 191 65.5Z" fill="white" fill-opacity="0.23"/>
<path d="M191 113.5C191 123.165 183.165 131 173.5 131C163.835 131 156 123.165 156 113.5C156 103.835 163.835 96 173.5 96C183.165 96 191 103.835 191 113.5Z" fill="white" fill-opacity="0.23"/>
<path d="M191 161.5C191 171.165 183.165 179 173.5 179C163.835 179 156 171.165 156 161.5C156 151.835 163.835 144 173.5 144C183.165 144 191 151.835 191 161.5Z" fill="white" fill-opacity="0.23"/>
</svg>
